<svg width="240" height="240" viewBox="0 0 24 24" fill="#0083db" xmlns="http://www.w3.org/2000/svg" class="QUG47gVjqD216Acwn73g"><path d="M15.1038 5H21.33C21.896 5 22.5 5.52847 22.5 6.3673V21.6327C22.5 22.4715 21.896 23 21.33 23H15.1038C14.5377 23 13.9338 22.4715 13.9338 21.6327V6.3673C13.9338 5.52847 14.5377 5 15.1038 5ZM2.67002 1H8.8962C9.46225 1 10.0662 1.52847 10.0662 2.3673V17.6327C10.0662 18.4715 9.46225 19 8.8962 19H2.67002C2.10396 19 1.5 18.4715 1.5 17.6327V2.3673C1.5 1.52847 2.10396 1 2.67002 1Z" class="DZEMpnxZuhga5Ilolp3b WDMSe6KFDspsZNbpH62J" stroke-width="2"></path></svg>