<svg class="story-icon" width="19" height="20" viewBox="0 0 19 20" fill="black" xmlns="http://www.w3.org/2000/svg"><path fill-rule="evenodd" clip-rule="evenodd" d="M2.74935 17.384V2.91732H11.091V17.384H2.74935ZM2.54102 0.833984C1.50548 0.833984 0.666016 1.67345 0.666016 2.70898V17.5923C0.666016 18.6279 1.50548 19.4673 2.54102 19.4673H11.2993C12.3349 19.4673 13.1743 18.6279 13.1743 17.5923V2.70898C13.1743 1.67345 12.3349 0.833984 11.2993 0.833984H2.54102ZM14.9495 0.833984C14.3742 0.833984 13.9078 1.30035 13.9078 1.87565C13.9078 2.45095 14.3742 2.91732 14.9495 2.91732H15.9411V17.384H14.9495C14.3742 17.384 13.9078 17.8504 13.9078 18.4257C13.9078 19.0009 14.3742 19.4673 14.9495 19.4673H16.1495C16.6467 19.4673 17.1237 19.2698 17.4753 18.9181C17.8269 18.5665 18.0245 18.0896 18.0245 17.5923V2.70898C18.0245 2.21171 17.8269 1.73479 17.4753 1.38316C17.1237 1.03153 16.6467 0.833984 16.1495 0.833984H14.9495ZM6.91602 7.16699C7.49131 7.16699 7.95768 7.63336 7.95768 8.20866V9.10872H8.85782C9.43312 9.10872 9.89949 9.57509 9.89949 10.1504C9.89949 10.7257 9.43312 11.1921 8.85782 11.1921H7.95768V12.092C7.95768 12.6673 7.49131 13.1337 6.91602 13.1337C6.34072 13.1337 5.87435 12.6673 5.87435 12.092V11.1921H4.97449C4.39919 11.1921 3.93282 10.7257 3.93282 10.1504C3.93282 9.57509 4.39919 9.10872 4.97449 9.10872H5.87435V8.20866C5.87435 7.63336 6.34072 7.16699 6.91602 7.16699Z" class="TDDPdWZbOExCmN4MwmsA"></path></svg>





