<svg width="21" height="21" viewBox="0 0 21 21" fill="none" xmlns="http://www.w3.org/2000/svg">
<path d="M9.57668 2.21993C9.91827 1.39863 11.0817 1.39864 11.4233 2.21993L13.3072 6.74938C13.4512 7.09561 13.7768 7.33218 14.1506 7.36215L19.0406 7.75417C19.9272 7.82525 20.2867 8.93176 19.6112 9.51043L15.8856 12.7018C15.6008 12.9458 15.4764 13.3285 15.5634 13.6933L16.7017 18.465C16.9081 19.3302 15.9668 20.0141 15.2077 19.5504L11.0213 16.9934C10.7012 16.7979 10.2988 16.7979 9.97875 16.9934L5.79229 19.5505C5.03319 20.0141 4.09194 19.3302 4.29833 18.465L5.43656 13.6933C5.52357 13.3285 5.3992 12.9458 5.11441 12.7018L1.3888 9.51043C0.713267 8.93176 1.07279 7.82525 1.95945 7.75417L6.84937 7.36215C7.22316 7.33218 7.54877 7.09561 7.69278 6.74938L9.57668 2.21993Z" fill="#DBF2FF" stroke="black" stroke-width="1.5" stroke-linecap="round"/>
</svg>