<?xml version="1.0" standalone="no"?>
<!DOCTYPE svg PUBLIC "-//W3C//DTD SVG 20010904//EN"
 "http://www.w3.org/TR/2001/REC-SVG-20010904/DTD/svg10.dtd">
<svg version="1.0" xmlns="http://www.w3.org/2000/svg"
 width="300.000000pt" height="300.000000pt" viewBox="0 0 300.000000 300.000000"
 preserveAspectRatio="xMidYMid meet">
<metadata>
Created by potrace 1.14, written by Peter Selinger 2001-2017
</metadata>
<g transform="translate(0.000000,300.000000) scale(0.100000,-0.100000)"
fill="#000000" stroke="none">
<path d="M71 2976 c-53 -29 -50 43 -51 -1468 0 -991 3 -1414 11 -1431 6 -13
23 -31 39 -40 26 -16 140 -17 1429 -17 985 0 1407 3 1424 11 13 6 31 23 40 39
16 26 17 140 17 1434 0 1068 -3 1411 -12 1431 -26 58 55 55 -1470 55 -1145 -1
-1407 -3 -1427 -14z"/>
</g>
</svg>
